<?xml version="1.0" encoding="UTF-8"?>
<svg id="Layer_2" data-name="Layer 2" xmlns="http://www.w3.org/2000/svg" viewBox="0 0 866.12 184.81">
  <defs>
    <style>
      .cls-1 {
        fill: #efebe2;
      }
    </style>
  </defs>
  <g id="Layer_1-2" data-name="Layer 1">
    <g>
      <path class="cls-1" d="M52.08,100.8c-12.81-2.52-21.42-10.08-24.15-17.64-1.47-3.78-2.31-7.35-2.31-10.71,0-2.52-.21-9.03,5.67-17.01,5.88-7.98,16.17-13.44,30.66-13.44,34.44,0,63,11.97,65.73,46.62.21,2.31.42,4.83.42,7.14v47.25c0,19.95-1.05,39.27,14.49,39.27v2.31c-28.98,0-41.37-7.77-41.37-34.65-7.77,22.05-24.57,34.65-50.4,34.86h-1.68c-31.71,0-49.14-15.75-49.14-41.58s24.15-37.38,52.08-42.42ZM57.33,179.35c24.36,0,43.89-14.07,43.89-53.13v-26.04c-26.04,0-74.13-.21-74.13,44.94,0,21.21,9.03,34.23,30.24,34.23ZM30.24,82.95c5.88,11.97,18.27,16.59,31.08,16.59,11.76-1.47,22.89-1.68,33.6-1.68h6.3c-.63-30.87-9.66-52.92-39.69-53.55-17.43,0-33.6,9.66-33.6,28.98.21,3.15.84,6.3,2.31,9.66Z"/>
      <path class="cls-1" d="M157.71,182.5c13.65,0,16.38-6.93,16.59-22.05v-88.62c0-17.64.84-26.67-13.23-27.72v-2.1c11.97-1.05,29.19-4.62,40.53-9.66v60.69c5.04-26.67,18.48-50.4,45.36-51.03h3.99c15.96,0,30.87,4.62,42.63,14.7,11.55,10.29,19.11,24.99,21.84,43.26,3.36-29.4,17.64-57.33,46.41-57.96h3.57c18.69,0,35.28,6.09,47.25,18.69,11.76,12.81,18.27,31.5,18.9,53.55v46.41c.21,14.91,2.94,21.84,16.59,21.84v2.1c-9.87-.63-19.53-.84-28.56-.84s-16.8.21-22.47.42c-3.36.21-6.3.21-9.03.42v-2.1c14.91,0,16.59-6.51,16.59-21.84v-44.1c0-18.69-2.1-37.17-8.61-50.82-6.51-13.44-17.01-21.63-33.6-21.63h-.84c-29.4,1.05-43.89,35.07-44.94,67.2v49.35c.21,14.91,2.94,21.84,16.59,21.84v2.1c-9.87-.63-19.53-.84-28.56-.84s-16.8.21-22.47.42c-3.36.21-6.3.21-9.03.42v-2.1c14.91,0,16.59-6.51,16.59-21.84v-44.31c0-18.69-2.1-37.17-8.61-50.61-6.51-13.44-17.01-21.63-33.6-21.63h-.84c-30.66,1.05-44.52,37.59-45.15,70.35v47.25c.21,14.28,3.36,20.79,16.59,20.79v2.1c-13.23-.63-21.21-.84-29.4-.84s-16.38.21-29.82.84h-1.26v-2.1Z"/>
      <path class="cls-1" d="M479.85,160.45v-78.96c0-17.64.84-26.67-13.23-27.72v-2.1c11.97-1.05,29.19-4.62,40.53-9.66v119.7c.21,14.28,3.36,20.79,16.59,20.79v2.1c-8.4-.63-20.37-.84-33.18-.84-9.03,0-18.27.21-27.3.84v-2.1c13.65,0,16.38-6.93,16.59-22.05ZM492.45,0c9.45,0,15.33,7.56,15.33,16.59s-6.3,16.17-15.33,16.17-15.12-6.09-15.12-16.17c0-9.24,6.09-16.59,15.12-16.59Z"/>
      <path class="cls-1" d="M608.57,42c18.48,0,35.28,5.25,50.61,15.54l-7.98,27.93h-1.05c-4.41-22.26-18.9-41.37-41.16-41.37-32.76,0-43.68,32.97-43.68,65.73,0,34.65,11.55,72.24,46.41,72.24,22.68-1.68,37.59-15.75,46.2-36.54l2.1.84c-9.87,23.73-27.51,38.22-52.92,38.22-39.9,0-68.25-30.87-68.25-70.98s27.51-71.61,69.72-71.61Z"/>
      <path class="cls-1" d="M691.73,160.45v-78.96c0-17.64.84-26.67-13.23-27.72v-2.1c11.97-1.05,29.19-4.62,40.53-9.66v119.7c.21,14.28,3.36,20.79,16.59,20.79v2.1c-8.4-.63-20.37-.84-33.18-.84-9.03,0-18.27.21-27.3.84v-2.1c13.65,0,16.38-6.93,16.59-22.05ZM704.33,0c9.45,0,15.33,7.56,15.33,16.59s-6.3,16.17-15.33,16.17-15.12-6.09-15.12-16.17c0-9.24,6.09-16.59,15.12-16.59Z"/>
      <path class="cls-1" d="M744.44,171.58l8.61-30.87h1.05c2.73,24.99,20.79,41.79,46.2,41.79,21,0,33.39-9.45,38.43-19.32,2.31-4.83,3.57-9.45,3.57-13.86,0-1.05-.21-3.15-.42-6.51-.42-3.15-2.31-6.3-5.88-9.45-13.02-11.34-53.34-10.29-74.13-26.46-8.4-6.51-12.18-15.54-12.18-24.57,0-.63-1.05-5.88,3.99-15.33,2.31-4.62,5.88-8.82,10.71-12.6,9.45-7.35,23.94-12.39,43.47-12.39,20.58,0,33.6,3.99,48.09,9.03l-7.77,30.45h-1.68c-2.73-21.84-16.38-37.59-36.96-37.59-18.69,0-30.66,7.98-35.49,16.17-2.31,3.99-3.36,7.98-3.36,11.76,0,1.05.21,2.94.63,5.88.42,2.94,2.73,5.88,6.72,8.82,14.07,10.08,56.07,11.13,74.76,25.2,8.61,6.72,13.23,16.8,13.23,26.88,0,.63,1.05,6.3-4.2,17.01-2.73,5.46-6.72,10.29-12.18,14.49-11.13,8.61-28.14,14.49-51.66,14.49-9.87,0-19.11-1.05-27.51-3.15-8.4-1.89-17.01-5.25-26.04-9.87Z"/>
    </g>
  </g>
</svg>