<svg width="130" height="47" viewBox="0 0 130 47" fill="none" xmlns="http://www.w3.org/2000/svg">
<g clip-path="url(#clip0_7_10)">
<path d="M47.0514 20.2532L48.6956 17.3C49.7617 18.0907 51.5253 18.823 53.4453 18.823C54.6016 18.823 55.2115 18.4568 55.2115 17.7272C55.2115 16.9975 54.5406 16.6605 52.6842 16.236C50.3107 15.6575 47.6613 14.6519 47.6613 11.8818C47.6613 9.20189 49.9739 7.46658 53.5063 7.46658C55.9117 7.46658 58.0412 8.19626 59.2903 9.05065L57.707 12.0038C56.458 11.2131 54.9675 10.6639 53.4161 10.6639C52.411 10.6639 51.7719 10.9982 51.7719 11.6987C51.7719 12.3992 52.5012 12.6433 54.6016 13.1289C56.8849 13.6781 59.2903 14.5299 59.2903 17.4831C59.2903 20.163 57.1289 22.0203 53.0502 22.0203C50.6103 22.0177 48.5126 21.2562 47.0514 20.2532Z" fill="white"/>
<path d="M77.398 14.7395C77.398 18.8814 74.5365 22.0177 70.6699 22.0177C68.8135 22.0177 67.3815 21.2562 66.379 20.1895V27.68H62.3904V7.73457H65.7372L65.8884 9.44069C66.9837 8.28382 68.5059 7.46127 70.5453 7.46127C74.4145 7.46127 77.398 10.5976 77.398 14.7395ZM73.3802 14.7395C73.3802 12.638 71.8288 11.0858 69.7895 11.0858C67.5989 11.0858 66.1987 12.6088 66.1987 14.7395C66.1987 16.8091 67.5989 18.3932 69.7895 18.3932C71.8288 18.3958 73.3802 16.8118 73.3802 14.7395Z" fill="white"/>
<path d="M94.6889 7.73457V21.7444H91.1591L91.0079 19.826C89.9737 21.1049 88.4514 22.0177 86.3802 22.0177C82.5136 22.0177 79.6522 18.8814 79.6522 14.7395C79.6522 10.5976 82.6038 7.46127 86.4704 7.46127C88.3268 7.46127 89.788 8.12992 90.8223 9.07452L91.0053 7.73457H94.6889ZM90.8541 14.7395C90.8541 12.6088 89.4539 11.0858 87.2633 11.0858C85.224 11.0858 83.6726 12.638 83.6726 14.7395C83.6726 16.8091 85.224 18.3932 87.2633 18.3932C89.4539 18.3958 90.8833 16.8409 90.8541 14.7395Z" fill="white"/>
<path d="M112.709 0V21.7444H109.482L109.33 19.887C108.235 21.1368 106.652 22.0177 104.552 22.0177C100.685 22.0177 97.7042 18.8814 97.7042 14.7395C97.7042 10.5976 100.566 7.46128 104.432 7.46128C106.289 7.46128 107.75 8.2228 108.755 9.31864V0H112.709ZM108.903 14.7395C108.903 12.6672 107.503 11.0858 105.313 11.0858C103.273 11.0858 101.722 12.6699 101.722 14.7395C101.722 16.841 103.273 18.3932 105.313 18.3932C107.503 18.3958 108.903 16.8728 108.903 14.7395Z" fill="white"/>
<path d="M129.939 15.8353H119.652C120.108 17.4486 121.662 18.6665 123.853 18.6665C125.892 18.6665 126.958 17.7219 127.565 17.2363L129.21 20.0993C128.358 20.8608 126.621 22.0177 123.426 22.0177C118.981 22.0177 115.724 18.8495 115.724 14.7395C115.724 10.6586 118.737 7.46127 123.031 7.46127C127.261 7.46127 130 10.5684 130 14.7713C130 15.2887 129.939 15.8353 129.939 15.8353ZM119.681 13.2775H126.194C126.011 11.6934 124.765 10.6267 123.182 10.6267C121.445 10.6294 120.137 11.5422 119.681 13.2775Z" fill="white"/>
<path d="M57.5612 35.4039L52.9812 45.7415H52.0743L47.4943 35.4039H48.6453L52.5622 44.3246L56.4341 35.4039H57.5612Z" fill="white"/>
<path d="M68.3786 40.8062H59.7279C59.8817 43.2181 61.6956 44.8792 64.1301 44.8792C65.6338 44.8792 66.5859 44.3485 67.3603 43.7276L67.8694 44.4811C67.0288 45.1684 65.8778 45.7866 64.0638 45.7866C60.9451 45.7866 58.7334 43.5737 58.7334 40.4958C58.7334 37.5081 60.7674 35.205 63.7986 35.205C66.4745 35.205 68.3998 37.1738 68.3998 40.1402C68.3998 40.5409 68.3786 40.8062 68.3786 40.8062ZM59.7491 39.92H67.4027C67.3815 37.5744 65.8088 36.1124 63.8199 36.1124C61.5869 36.1124 59.9931 37.6859 59.7491 39.92Z" fill="white"/>
<path d="M80.3682 39.9412V45.585H79.3499V40.0527C79.3499 37.6832 77.9337 36.1336 75.8333 36.1575C73.5314 36.1575 72.3592 37.9061 72.2054 39.3442L72.1842 45.585H71.1659V35.404H72.0065L72.0728 37.6169C72.582 36.3565 73.9743 35.205 75.9898 35.205C78.6206 35.205 80.3682 37.0862 80.3682 39.9412Z" fill="white"/>
<path d="M84.2162 42.4433V36.2689H82.1371V35.4066H84.2162L84.2375 31.9095H85.2319V35.4066H89.6793V36.2689H85.2346V42.4221C85.2346 44.1707 86.3405 44.8579 87.7566 44.8579C88.95 44.8579 89.6581 44.237 89.8809 44.0831L90.2999 44.8579C90.0347 45.0781 89.1728 45.7866 87.6002 45.7866C85.7199 45.7866 84.2162 44.5899 84.2162 42.4433Z" fill="white"/>
<path d="M101.051 35.4039V45.5849H100.144L100.099 43.4835C99.5685 44.7013 98.1975 45.7866 96.2933 45.7866C93.705 45.7866 92.0024 43.9053 92.0024 41.0503V35.4066H93.042V40.8964C93.042 43.242 94.3256 44.8128 96.4047 44.7916C98.8392 44.7703 99.9875 42.7989 100.011 41.2944V35.4066H101.051V35.4039Z" fill="white"/>
<path d="M110.009 35.2713L109.922 36.2902C109.678 36.2238 109.437 36.2026 109.102 36.2026C106.713 36.2026 105.695 38.2165 105.673 39.6998V45.5876H104.655V35.4066H105.541L105.607 37.7522C105.984 36.4228 107.222 35.2076 109.256 35.2076C109.545 35.2049 109.81 35.2288 110.009 35.2713Z" fill="white"/>
<path d="M120.318 40.8062H111.667C111.821 43.2181 113.635 44.8792 116.069 44.8792C117.573 44.8792 118.525 44.3485 119.299 43.7276L119.808 44.4811C118.968 45.1684 117.817 45.7866 116.003 45.7866C112.884 45.7866 110.672 43.5737 110.672 40.4958C110.672 37.5081 112.706 35.205 115.738 35.205C118.414 35.205 120.339 37.1738 120.339 40.1402C120.342 40.5409 120.318 40.8062 120.318 40.8062ZM111.691 39.92H119.344C119.323 37.5744 117.751 36.1124 115.762 36.1124C113.526 36.1124 111.935 37.6859 111.691 39.92Z" fill="white"/>
<path d="M122.198 44.635L122.728 43.7939C123.548 44.436 124.675 44.8791 126.07 44.8791C127.772 44.8791 128.857 44.1495 128.857 42.9767C128.857 41.849 128.26 41.2944 126.091 40.8089C123.768 40.2782 122.596 39.5246 122.596 37.9326C122.596 36.3167 124.033 35.2315 126.136 35.2315C127.905 35.2315 129.011 35.8285 129.586 36.2265L129.101 37.0225C128.149 36.4467 127.242 36.1363 126.07 36.1363C124.654 36.1363 123.635 36.7784 123.635 37.8848C123.635 38.8799 124.343 39.3681 126.468 39.8536C129.101 40.4745 129.875 41.2918 129.875 42.9528C129.875 44.6563 128.348 45.7866 126.07 45.7866C124.521 45.7866 123.283 45.3647 122.198 44.635Z" fill="white"/>
<path d="M24.2046 46.71C21.0328 46.71 17.9247 45.1339 15.286 42.1409L13.7213 40.3631C12.764 39.2779 12.8674 37.6195 13.9547 36.6616C15.042 35.7038 16.6995 35.8073 17.6542 36.8951L19.2189 38.6702C20.3115 39.9094 22.5206 41.9021 25.1195 41.3687C27.7079 40.8274 28.9437 38.1077 29.4502 36.5369L34.6454 20.3938C35.5206 17.6741 35.2607 15.3338 33.9135 13.8055C32.5663 12.2772 30.2856 11.7253 27.4745 12.2559L10.8201 15.3922C9.19705 15.6973 6.34883 16.5836 5.48958 19.0857C4.62769 21.5878 6.33291 24.0422 7.42553 25.2813L9.36413 27.3669C10.3507 28.4282 10.2897 30.0866 9.22887 31.0736C8.16808 32.0607 6.5106 31.9997 5.52406 30.9383L3.53773 28.8024C0.302314 25.1354 -0.750522 21.097 0.527732 17.3822C1.80333 13.6675 5.113 11.1309 9.84944 10.2394L26.5092 7.10308C31.2032 6.21951 35.2315 7.36842 37.849 10.3402C40.4665 13.3093 41.103 17.4512 39.6391 22.0044L34.4439 38.1475C32.9667 42.7379 30.0363 45.7043 26.1936 46.5083C25.5279 46.641 24.8649 46.71 24.2046 46.71Z" fill="white"/>
</g>
<defs>
<clipPath id="clip0_7_10">
<rect width="130" height="46.71" fill="white"/>
</clipPath>
</defs>
</svg>
