<?xml version="1.0" encoding="UTF-8"?>
<svg id="Layer_2" data-name="Layer 2" xmlns="http://www.w3.org/2000/svg" viewBox="0 0 401.63 76.56">
  <defs>
    <style>
      .cls-1 {
        stroke-width: 0px;
      }
    </style>
  </defs>
  <g id="Layer_1-2" data-name="Layer 1">
    <g>
      <path class="cls-1" d="m53,41.71c-4.67,1.21-11.68,3.54-18.39,7.46,2.41,7.31-5.73,17.1-14.77,23.43-17.41,11.98-17.25-5.42,12.06-23.21C27.3,41.33-1.93,47.13.1,33.8,1.99,21.67,45.08-2.82,52.17.27c3.54,1.51,2.26,7.61-1.28,16.58-.6,1.51-2.86,1.43-2.26-.08,3.17-7.84,5.35-13.86,2.71-15.22C46.21-1.09,3.57,23.4,1.99,33.72c-1.73,10.55,27.05,4.67,32.17,14.39,7.69-4.45,14.62-6.48,18.99-7.53.83-.15.6.98-.15,1.13Zm-20.65,8.97c-24.94,15.29-28.86,31.57-13.34,20.64,7.69-5.42,15.45-14.32,13.34-20.64Z"/>
      <path class="cls-1" d="m89.91,41.56c-5.42,7.31-13.94,16.5-21.62,16.35-9.42-.23-2.34-12.36-1.73-15.3.15-.75-.08-.68-.45-.23-2.26,2.79-6.63,15.52-14.09,15.52-6.25,0-3.92-11-.23-16.95.9-1.43,2.94-.9,2.03.6-4.22,6.63-5.2,13.94-.83,14.01,5.43.08,9.49-11.08,12.43-14.32,1.43-1.43,2.79-1.28,2.71.45-.23,3.62-5.95,13.86,1.36,13.86,6.63.08,14.77-8.97,19.52-14.47.23-.3.6-.45.83-.3s.23.45.08.75Z"/>
      <path class="cls-1" d="m136.48,41.56c-3.32,3.84-7.38,7.76-11.83,10.32-6.1,3.54-11.68,3.69-11.45-5.05.15-3.92-1.73-3.32-4.37-.38-1.51,1.73-2.86,3.77-4.45,5.88-3.24,4.07-5.27,3.01-4.97.15.23-2.11,1.36-5.35,1.73-7.99.83-5.2-2.34-4.52-5.88.08-3.01,4.07-5.73,9.72-7.84,12.43-1.81,2.26-3.47,2.03-3.69.15-.3-3.92,2.71-12.06,5.12-16.5.83-1.51,2.94-1.05,2.11.45-2.11,3.77-6.33,13.64-5.35,15.82,1.58-1.43,4.75-8.36,8.06-13.04,5.12-7.08,10.85-7.01,9.87.15-.45,3.09-1.73,6.78-1.73,8.29,1.28-1.28,3.24-4.45,5.5-6.93,3.92-4.22,8.29-5.12,8.06.83-.3,4.82.9,8.59,8.82,4.29,4.07-2.18,8.29-6.1,11.45-9.49.6-.6,1.43-.08.83.53Z"/>
      <path class="cls-1" d="m183.12,41.56c-3.32,3.84-7.38,7.76-11.83,10.32-6.1,3.54-11.68,3.69-11.45-5.05.15-3.92-1.73-3.32-4.37-.38-1.51,1.73-2.86,3.77-4.45,5.88-3.24,4.07-5.27,3.01-4.97.15.23-2.11,1.36-5.35,1.73-7.99.83-5.2-2.34-4.52-5.88.08-3.01,4.07-5.73,9.72-7.84,12.43-1.81,2.26-3.47,2.03-3.69.15-.3-3.92,2.71-12.06,5.12-16.5.83-1.51,2.94-1.05,2.11.45-2.11,3.77-6.33,13.64-5.35,15.82,1.58-1.43,4.75-8.36,8.06-13.04,5.12-7.08,10.85-7.01,9.87.15-.45,3.09-1.73,6.78-1.73,8.29,1.28-1.28,3.24-4.45,5.5-6.93,3.92-4.22,8.29-5.12,8.06.83-.3,4.82.9,8.59,8.82,4.29,4.07-2.18,8.29-6.1,11.45-9.49.6-.6,1.43-.08.83.53Z"/>
      <path class="cls-1" d="m206.78,41.56c-4.45,4.9-9.64,10.4-15.45,13.64-9.57,5.5-17.1,2.11-13.11-8.06,2.34-5.95,7.08-10.02,10.93-11.08,4.6-1.28,5.5,3.62.75,7.16-2.79,2.11-6.25,2.79-9.27,2.86-4.22,9.04,2.11,11.83,10.17,7.46,5.35-2.86,10.77-8.14,15.22-12.51.6-.6,1.36-.08.75.53Zm-24.86,2.26c2.18-.08,4.97-.53,7.01-2.11,2.49-1.81,2.64-4.37.08-3.77-1.88.53-4.9,2.56-7.08,5.88Z"/>
      <path class="cls-1" d="m233.75,41.56c-3.32,3.69-6.86,7.61-11.23,11.08-8.97,7.01-17.56,7.46-15.82-1.73.6-2.79,1.88-5.73,3.47-8.36-.6.08-1.13.15-1.88.23-4.22.3-4.6-1.96-1.58-5.58,1.13-1.28,3.09-.53,1.73.9-1.58,1.81-1.81,2.64.53,2.49,1.05-.08,2.11-.3,2.86-.45,1.58-.23,1.96.45.75,2.03-2.11,3.24-3.31,6.18-3.77,8.44-1.28,7.08,5.73,5.95,12.81.75,3.92-2.94,7.91-6.86,11.38-10.32.6-.6,1.36-.08.75.53Z"/>
      <path class="cls-1" d="m308.5,41.71c-4.67,1.21-11.68,3.54-18.38,7.46,2.41,7.31-5.73,17.1-14.77,23.43-17.41,11.98-17.25-5.42,12.06-23.21-4.6-8.06-33.83-2.26-31.8-15.6,1.88-12.13,44.98-36.62,52.07-33.53,3.54,1.51,2.26,7.61-1.28,16.58-.6,1.51-2.86,1.43-2.26-.08,3.16-7.84,5.35-13.86,2.71-15.22-5.12-2.64-47.77,21.85-49.35,32.17-1.73,10.55,27.05,4.67,32.17,14.39,7.69-4.45,14.62-6.48,18.99-7.53.83-.15.6.98-.15,1.13Zm-20.65,8.97c-24.94,15.29-28.86,31.57-13.34,20.64,7.69-5.42,15.45-14.32,13.34-20.64Z"/>
      <path class="cls-1" d="m339.31,41.56c-3.69,4.6-8.74,10.02-13.71,13.26-7.31,4.82-14.01,4.14-11.91-3.77.75-2.94,2.26-6.03,3.01-7.91.53-1.43.15-2.19-1.13-.15-1.05,1.58-2.86,4.97-4.29,7.38-5.73,9.57-11.08,9.04-10.47,3.62.9-6.18,8.29-19.29,12.66-13.49.75.98-1.43,2.71-2.19,1.73-2.71-3.62-7.69,6.63-8.06,11.23-.38,4.45,3.16,1.21,6.4-3.54,1.81-2.79,3.16-5.2,4.75-7.38,2.56-3.24,4.6-2.86,3.77.45-.6,2.41-1.81,5.05-2.41,7.76-1.21,6.1,3.77,5.88,9.12,2.49,5.58-3.47,10.4-8.74,13.64-12.21.6-.6,1.36-.15.83.53Z"/>
      <path class="cls-1" d="m360.94,41.26c-3.01,4.14-6.78,8.89-10.7,12.36-8.74,7.69-17.93,5.8-12.96-12.28,1.28-4.6,3.24-9.27,5.58-13.79,13.71-26,27.73-21.25,8.14,3.32-5.05,6.25-10.85,11.3-11.83,11.9-3.32,13.49,2.71,15.67,10.1,9.72,3.77-3.09,7.84-7.91,10.77-11.68.53-.68,1.43-.23.9.45Zm-20.87-1.58c3.47-2.86,6.71-6.1,9.57-9.57,17.25-20.87,7.38-26.3-4.67-2.26-1.96,3.92-3.62,7.91-4.9,11.83Z"/>
      <path class="cls-1" d="m401.25,22.57c.75,0,.3,1.13-.45,1.13l-50.33.6c-1.51,0-.68-2.26.83-2.26l49.96.53Zm-22.23,18.91c-4.9,6.63-11.75,16.65-18.31,16.58-8.89-.15-.75-21.02,3.24-29.99,1.73-3.69,8.14-17.33,11.83-17.41,1.21,0,.68,1.88-.6,2.03-2.34,1.43-7.61,12.43-9.04,15.6-2.94,6.56-11.15,27.43-4.67,27.8,4.97.15,11.38-8.59,16.73-14.99.53-.6,1.21-.23.83.38Z"/>
    </g>
  </g>
</svg>