<?xml version="1.0" encoding="UTF-8"?>
<svg id="Layer_2" data-name="Layer 2" xmlns="http://www.w3.org/2000/svg" viewBox="0 0 455.45 86.81">
  <defs>
    <style>
      .cls-1 {
        stroke-width: 0px;
      }
    </style>
  </defs>
  <g id="Layer_1-2" data-name="Layer 1">
    <g>
      <path class="cls-1" d="m60.09,47.3c-5.3,1.37-13.24,4.02-20.85,8.46,2.73,8.29-6.49,19.4-16.75,26.57-19.74,13.59-19.57-6.15,13.67-26.32C30.96,46.87-2.19,53.45.11,38.32,2.25,24.57,51.12-3.2,59.16.3c4.02,1.71,2.56,8.63-1.45,18.8-.68,1.71-3.25,1.62-2.56-.09,3.59-8.89,6.07-15.72,3.08-17.26C52.41-1.24,4.05,26.53,2.25,38.24c-1.97,11.96,30.67,5.3,36.48,16.32,8.72-5.04,16.58-7.35,21.53-8.54.94-.17.68,1.11-.17,1.28Zm-23.41,10.17c-28.28,17.34-32.72,35.8-15.12,23.41,8.72-6.15,17.52-16.23,15.12-23.41Z"/>
      <path class="cls-1" d="m101.96,47.12c-6.15,8.29-15.81,18.71-24.52,18.54-10.68-.26-2.65-14.01-1.97-17.34.17-.85-.09-.77-.51-.26-2.56,3.16-7.52,17.6-15.98,17.6-7.09,0-4.44-12.47-.26-19.22,1.03-1.62,3.33-1.03,2.31.68-4.78,7.52-5.9,15.81-.94,15.89,6.15.09,10.77-12.56,14.1-16.23,1.62-1.62,3.16-1.45,3.08.51-.26,4.1-6.75,15.72,1.54,15.72,7.52.09,16.75-10.17,22.13-16.4.26-.34.68-.51.94-.34s.26.51.09.85Z"/>
      <path class="cls-1" d="m154.76,47.12c-3.76,4.36-8.37,8.8-13.41,11.71-6.92,4.02-13.24,4.19-12.99-5.72.17-4.44-1.97-3.76-4.96-.43-1.71,1.97-3.25,4.27-5.04,6.66-3.67,4.61-5.98,3.42-5.64.17.26-2.39,1.54-6.07,1.97-9.06.94-5.9-2.65-5.13-6.66.09-3.42,4.61-6.49,11.02-8.89,14.1-2.05,2.56-3.93,2.31-4.19.17-.34-4.44,3.08-13.67,5.81-18.71.94-1.71,3.33-1.2,2.39.51-2.39,4.27-7.18,15.46-6.07,17.94,1.79-1.62,5.38-9.48,9.14-14.78,5.81-8.03,12.3-7.95,11.19.17-.51,3.5-1.97,7.69-1.97,9.4,1.45-1.45,3.67-5.04,6.24-7.86,4.44-4.78,9.4-5.81,9.14.94-.34,5.47,1.03,9.74,10,4.87,4.61-2.48,9.4-6.92,12.99-10.77.68-.68,1.62-.09.94.6Z"/>
      <path class="cls-1" d="m207.65,47.12c-3.76,4.36-8.37,8.8-13.41,11.71-6.92,4.02-13.24,4.19-12.99-5.72.17-4.44-1.97-3.76-4.96-.43-1.71,1.97-3.25,4.27-5.04,6.66-3.67,4.61-5.98,3.42-5.64.17.26-2.39,1.54-6.07,1.97-9.06.94-5.9-2.65-5.13-6.66.09-3.42,4.61-6.49,11.02-8.89,14.1-2.05,2.56-3.93,2.31-4.19.17-.34-4.44,3.08-13.67,5.81-18.71.94-1.71,3.33-1.2,2.39.51-2.39,4.27-7.18,15.46-6.07,17.94,1.79-1.62,5.38-9.48,9.14-14.78,5.81-8.03,12.3-7.95,11.19.17-.51,3.5-1.97,7.69-1.97,9.4,1.45-1.45,3.67-5.04,6.24-7.86,4.44-4.78,9.4-5.81,9.14.94-.34,5.47,1.03,9.74,10,4.87,4.61-2.48,9.4-6.92,12.99-10.77.68-.68,1.62-.09.94.6Z"/>
      <path class="cls-1" d="m234.48,47.12c-5.04,5.55-10.94,11.79-17.52,15.46-10.85,6.24-19.4,2.39-14.87-9.14,2.65-6.75,8.03-11.36,12.39-12.56,5.21-1.45,6.24,4.1.85,8.12-3.16,2.39-7.09,3.16-10.51,3.25-4.78,10.25,2.39,13.41,11.53,8.46,6.07-3.25,12.22-9.23,17.26-14.18.68-.68,1.54-.09.85.6Zm-28.2,2.56c2.48-.09,5.64-.6,7.95-2.39,2.82-2.05,2.99-4.96.09-4.27-2.14.6-5.55,2.91-8.03,6.66Z"/>
      <path class="cls-1" d="m265.07,47.12c-3.76,4.19-7.78,8.63-12.73,12.56-10.17,7.95-19.91,8.46-17.94-1.97.68-3.16,2.14-6.49,3.93-9.48-.68.09-1.28.17-2.14.26-4.78.34-5.21-2.22-1.79-6.32,1.28-1.45,3.5-.6,1.97,1.03-1.79,2.05-2.05,2.99.6,2.82,1.2-.09,2.39-.34,3.25-.51,1.79-.26,2.22.51.85,2.31-2.39,3.67-3.76,7.01-4.27,9.57-1.45,8.03,6.49,6.75,14.53.85,4.44-3.33,8.97-7.78,12.9-11.71.68-.68,1.54-.09.85.6Z"/>
      <path class="cls-1" d="m349.83,47.3c-5.3,1.37-13.24,4.02-20.85,8.46,2.73,8.29-6.49,19.4-16.75,26.57-19.74,13.59-19.57-6.15,13.67-26.32-5.21-9.14-38.36-2.56-36.06-17.69,2.14-13.76,51.01-41.52,59.04-38.02,4.02,1.71,2.56,8.63-1.45,18.8-.68,1.71-3.25,1.62-2.56-.09,3.59-8.89,6.07-15.72,3.08-17.26-5.81-2.99-54.17,24.78-55.96,36.48-1.97,11.96,30.67,5.3,36.48,16.32,8.72-5.04,16.58-7.35,21.53-8.54.94-.17.68,1.11-.17,1.28Zm-23.41,10.17c-28.28,17.34-32.72,35.8-15.12,23.41,8.72-6.15,17.52-16.23,15.12-23.41Z"/>
      <path class="cls-1" d="m384.77,47.12c-4.19,5.21-9.91,11.36-15.55,15.04-8.29,5.47-15.89,4.7-13.5-4.27.85-3.33,2.56-6.84,3.42-8.97.6-1.62.17-2.48-1.28-.17-1.2,1.79-3.25,5.64-4.87,8.37-6.49,10.85-12.56,10.25-11.88,4.1,1.03-7.01,9.4-21.87,14.35-15.29.85,1.11-1.62,3.08-2.48,1.97-3.08-4.1-8.72,7.52-9.14,12.73-.43,5.04,3.59,1.37,7.26-4.02,2.05-3.16,3.59-5.9,5.38-8.37,2.91-3.67,5.21-3.25,4.27.51-.68,2.73-2.05,5.72-2.73,8.8-1.37,6.92,4.27,6.66,10.34,2.82,6.32-3.93,11.79-9.91,15.46-13.84.68-.68,1.54-.17.94.6Z"/>
      <path class="cls-1" d="m409.3,46.78c-3.42,4.7-7.69,10.08-12.13,14.01-9.91,8.72-20.34,6.58-14.7-13.93,1.45-5.21,3.67-10.51,6.32-15.64,15.55-29.48,31.44-24.09,9.23,3.76-5.72,7.09-12.3,12.82-13.41,13.5-3.76,15.29,3.08,17.77,11.45,11.02,4.27-3.5,8.89-8.97,12.22-13.24.6-.77,1.62-.26,1.03.51Zm-23.67-1.79c3.93-3.25,7.6-6.92,10.85-10.85,19.57-23.67,8.37-29.82-5.3-2.56-2.22,4.44-4.1,8.97-5.55,13.41Z"/>
      <path class="cls-1" d="m455.01,25.59c.85,0,.34,1.28-.51,1.28l-57.08.68c-1.71,0-.77-2.56.94-2.56l56.65.6Zm-25.21,21.45c-5.55,7.52-13.33,18.88-20.76,18.8-10.08-.17-.85-23.84,3.67-34.01,1.97-4.19,9.23-19.65,13.41-19.74,1.37,0,.77,2.14-.68,2.31-2.65,1.62-8.63,14.1-10.25,17.69-3.33,7.43-12.65,31.1-5.3,31.53,5.64.17,12.9-9.74,18.97-17,.6-.68,1.37-.26.94.43Z"/>
    </g>
  </g>
</svg>