<svg width="175" height="109" viewBox="0 0 175 109" fill="none" xmlns="http://www.w3.org/2000/svg">
<path d="M114.622 38.9929C114.622 52.1852 106.413 64.0583 90.1031 64.0583C75.0895 64.0583 64.4828 55.2562 64.4828 37.8251V6.01222C64.4828 2.48707 62.1497 1.98966 60.3783 1.98966V1.25435C64.6988 1.25435 68.8032 0.151387 69.3865 0H70.121V37.8251C70.121 54.3263 75.7592 62.8904 89.9519 62.8904C103.432 62.8904 108.551 55.4941 108.551 38.9929C108.551 25.4979 102.913 19.118 95.9573 19.118C89.0014 19.118 83.3632 24.33 83.3632 37.8035C83.3632 51.2769 89.0014 56.5755 95.9573 56.5755V57.4621C86.4307 57.4621 77.3577 50.6497 77.3577 37.8251C77.3577 25.0005 86.4307 18.1881 95.9573 18.1881C105.484 18.1881 114.622 26.1683 114.622 39.0146V38.9929ZM6.6751 105.127C4.55808 105.127 4.25565 103.159 4.25565 100.975V92.2811H9.18097V91.9567H4.25565V88.0207H3.91001C3.91001 89.6859 3.24034 91.9567 0 91.9567V92.2811H2.16023V101.213C2.16023 104.89 3.71559 106.057 5.7462 106.057C7.604 106.057 9.22417 104.738 10.0235 102.965L9.82903 102.705C9.07295 104.089 8.12245 105.127 6.6319 105.127H6.6751ZM22.8768 104.046V95.763C22.8768 93.0381 21.9479 91.6972 19.6581 91.6972C19.6581 91.6972 16.6337 91.6972 13.9983 94.9412V85.0578H13.739C13.523 85.1011 12.0325 85.512 10.4555 85.512V85.7715C11.1036 85.7715 11.9245 85.9661 11.9245 87.2421V104.046C11.9245 105.344 11.1036 105.517 10.4555 105.517V105.776H15.4888V105.517C14.8408 105.517 14.0199 105.322 14.0199 104.046V95.5035C15.1432 94.2059 16.8066 92.5839 18.7508 92.5839C20.5006 92.5839 20.803 93.9031 20.803 95.3089V104.046C20.803 105.344 19.9389 105.517 19.3124 105.517V105.776H24.3674V105.517C23.7193 105.517 22.8768 105.322 22.8768 104.046ZM37.3719 102.662L37.5663 102.921C36.6375 104.5 34.542 106.014 32.101 106.014C28.623 106.014 25.2747 103.527 25.2747 98.834C25.2747 94.141 27.9533 91.6323 31.4313 91.6323C35.1469 91.6323 37.0479 94.1194 37.0479 97.6878H27.4781V98.4447C27.4781 102.511 29.5087 105.041 33.0299 105.041C35.2333 105.041 36.7023 103.765 37.3719 102.684V102.662ZM27.5213 97.3202H35.0389C35.0389 94.1627 33.8292 91.9567 31.4313 91.9567C29.0335 91.9567 27.7373 93.6436 27.5213 97.3202ZM54.5457 105.127C52.4287 105.127 52.1263 103.159 52.1263 100.975V92.2811H57.0516V91.9567H52.1263V88.0207H51.7806C51.7806 89.6859 51.111 91.9567 47.8706 91.9567V92.2811H50.0309V101.213C50.0309 104.89 51.5862 106.057 53.6168 106.057C55.4746 106.057 57.0948 104.738 57.8941 102.965L57.6997 102.705C56.9436 104.089 55.9931 105.127 54.5025 105.127H54.5457ZM70.6394 105.279C70.8987 105.279 71.2227 105.127 71.5467 104.911V105.214C70.9202 106.036 69.7321 106.036 69.7321 106.036C68.9112 106.036 67.9823 105.603 67.9823 103.592V102.77C65.3901 106.036 62.3658 106.036 62.3658 106.036C60.6808 106.036 59.1254 104.803 59.1254 102.662C59.1254 99.2017 62.4522 96.8444 67.9823 96.1307V95.6982C67.9823 93.6004 67.4207 92 64.7636 92C62.733 92 60.832 93.7734 60.2703 96.2821L59.9247 96.2172L60.0543 92.5407C62.409 91.6323 64.7636 91.6323 64.7636 91.6323C68.2416 91.6323 70.0562 93.4274 70.0562 96.6714V104.306C70.0562 105.019 70.2938 105.279 70.6178 105.279H70.6394ZM67.9823 96.4767C63.5323 96.9092 61.264 98.9422 61.264 102.316C61.264 103.743 61.8041 105.127 63.2947 105.127C65.2605 105.127 66.859 103.484 67.9823 102.208V96.4767ZM76.1696 104.046V85.0362H75.9104C75.6944 85.0794 74.2038 85.4903 72.6268 85.4903V85.7499C73.2749 85.7499 74.0958 85.9445 74.0958 87.2205V104.024C74.0958 105.322 73.2749 105.495 72.6268 105.495V105.755H77.6602V105.495C77.0121 105.495 76.1912 105.3 76.1912 104.024L76.1696 104.046ZM91.464 91.6972C87.986 91.6972 84.6593 94.1843 84.6593 98.8773C84.6593 103.57 87.986 106.057 91.464 106.057V105.733C88.9149 105.733 86.8627 103.808 86.8627 98.8773C86.8627 93.9464 88.9149 92.0432 91.464 92.0432C94.0131 92.0432 96.0653 94.3789 96.0653 99.3098C96.0653 105.344 94.1859 108.047 89.2606 108.047C84.0544 108.047 82.0022 104.911 82.0022 98.8773V85.0362H81.743C81.527 85.0794 80.0364 85.4903 78.4594 85.4903V85.7499C79.1075 85.7499 79.95 85.9445 79.95 87.2205V98.8557C79.95 105.236 83.8384 108.458 89.3254 108.458C95.2876 108.458 98.2903 104.111 98.2903 99.2882C98.2903 94.4654 94.942 91.6756 91.464 91.6756V91.6972ZM115.723 91.9567C117.387 91.9567 117.624 92.8651 117.041 94.5519L114.103 102.965L110.064 91.3728H109.588L105.527 102.965L102.308 93.795C101.833 92.4541 102.308 91.9351 103.324 91.9351V91.6756H98.4415V91.9351C99.0896 91.9351 99.7161 92.4109 100.148 93.6436L104.404 105.755H104.879L108.94 94.1627L112.98 105.755H113.455L117.711 93.6004C118.164 92.3676 118.812 91.9135 119.461 91.9135V91.654H115.702V91.9135L115.723 91.9567ZM143.547 98.8773C143.547 103.008 141.646 106.057 137.974 106.057C135.662 106.057 133.977 104.868 133.135 102.619V105.776H129.57V105.473C130.218 105.473 131.039 105.279 131.039 104.003V87.2205C131.039 85.9229 130.218 85.7499 129.57 85.7499V85.4471C131.147 85.4471 132.66 85.0362 132.854 84.9929H133.113V95.071C133.977 92.8218 135.662 91.6323 137.952 91.6323C141.624 91.6323 143.525 94.725 143.525 98.834L143.547 98.8773ZM141.322 98.8773C141.322 94.4006 140.177 92.0216 137.628 92.0216C135.273 92.0216 133.156 93.9464 133.156 98.8773C133.156 103.808 135.273 105.711 137.628 105.711C140.177 105.711 141.322 103.354 141.322 98.8773ZM148.17 104.046V91.6972H147.911C147.695 91.7405 146.204 92.1514 144.627 92.1514V92.4109C145.275 92.4109 146.096 92.6055 146.096 93.8815V104.046C146.096 105.344 145.275 105.517 144.627 105.517V105.776H149.661V105.517C149.012 105.517 148.192 105.322 148.192 104.046H148.17ZM147.133 87.7828C147.889 87.7828 148.494 87.1772 148.494 86.4203C148.494 85.6634 147.868 85.0578 147.133 85.0578C146.399 85.0578 145.772 85.685 145.772 86.4203C145.772 87.1556 146.399 87.7828 147.133 87.7828ZM162.514 105.3C162.773 105.3 163.097 105.149 163.421 104.933V105.236C162.795 106.057 161.607 106.057 161.607 106.057C160.786 106.057 159.857 105.625 159.857 103.614V102.792C157.265 106.057 154.24 106.057 154.24 106.057C152.555 106.057 151 104.825 151 102.684C151 99.2233 154.327 96.866 159.857 96.1523V95.7198C159.857 93.622 159.295 92.0216 156.638 92.0216C154.607 92.0216 152.706 93.795 152.145 96.3037L151.799 96.2388L151.929 92.5623C154.283 91.654 156.638 91.654 156.638 91.654C160.116 91.654 161.931 93.449 161.931 96.693V104.327C161.931 105.041 162.168 105.3 162.492 105.3H162.514ZM159.857 96.4983C155.407 96.9309 153.138 98.9638 153.138 102.338C153.138 103.765 153.679 105.149 155.169 105.149C157.135 105.149 158.733 103.505 159.857 102.229V96.4983ZM166.813 94.6817C166.813 93.0813 167.612 91.9784 169.902 91.9784C171.932 91.9784 173.704 93.7517 174.266 96.2604L174.611 96.2172L174.482 92.5407C174.482 92.5407 172.257 91.6323 169.902 91.6323C166.899 91.6323 164.89 92.9732 164.89 95.244C164.89 99.4612 173.013 98.142 173.013 102.965C173.013 104.63 172.127 105.668 170.01 105.668C167.893 105.668 165.797 103.895 165.236 101.386L164.89 101.451L165.02 105.149C165.02 105.149 167.634 106.036 170.01 106.036C172.905 106.036 175.022 104.435 175.022 102.316C175.022 97.0174 166.834 97.8392 166.834 94.7033L166.813 94.6817Z" fill="#263746"/>
</svg>
