<?xml version="1.0" encoding="UTF-8"?>
<svg xmlns="http://www.w3.org/2000/svg" width="125" height="81" viewBox="0 0 125 81" fill="none">
  <g clip-path="url(#clip0_55_2)">
    <path d="M82.4209 17.1572V20.3675H81.7795V19.083H72.6455V42.8462C72.6455 47.0568 74.8571 50.7673 77.3545 50.7673C79.3518 50.7673 81.065 48.1984 81.5652 44.5594H82.1368C81.3508 50.5529 77.4991 54.9779 73.0742 54.9779C67.9364 54.9779 63.6543 49.6972 63.6543 43.0606H63.5828V5.52569H62.084V4.95407H74.214V5.52569H72.6438V18.5131H81.7778V17.1572H82.4192H82.4209Z" fill="black"></path>
    <path d="M43.7309 37.8207V34.6104H44.3722V35.8949H53.5063V12.1317C53.5063 7.92106 51.2947 4.21062 48.7972 4.21062C46.7999 4.21062 45.0868 6.77952 44.5866 10.4185H44.015C44.801 4.42497 48.6543 0 53.0776 0C58.2154 0 62.4974 5.28071 62.4974 11.9173H62.5689V49.4522H64.0677V50.0238H51.936V49.4522H53.5063V36.4648H44.3722V37.8207H43.7309Z" fill="black"></path>
    <path d="M64.0677 49.4522H51.936V50.0238H64.0677V49.4522Z" fill="black"></path>
    <path d="M7.5621 70.1973H4.53726V80.4253H3.34297C3.30384 80.2926 3.26982 80.1531 3.2443 80.0068C3.17795 79.7159 3.14563 79.3892 3.14563 79.032V70.1973H0V69.1017H7.93977L7.5621 70.1973Z" fill="black"></path>
    <path d="M18.2273 74.6546C18.2273 75.5699 18.0912 76.395 17.819 77.1317C17.5468 77.8683 17.181 78.4944 16.7234 79.0116C16.264 79.5287 15.7383 79.9302 15.148 80.2143C14.556 80.5002 13.9418 80.6414 13.3038 80.6414C12.5468 80.6414 11.8646 80.4951 11.2606 80.2041C10.6567 79.9132 10.1446 79.5015 9.7261 78.9707C9.30759 78.4399 8.98435 77.8071 8.75978 77.0704C8.53352 76.3338 8.42123 75.5274 8.42123 74.6529C8.42123 73.7785 8.55053 72.9415 8.81082 72.2252C9.06941 71.509 9.42328 70.9051 9.8673 70.4151C10.313 69.9251 10.8319 69.5492 11.4223 69.2906C12.0126 69.032 12.6421 68.9027 13.3055 68.9027C14.117 68.9027 14.8282 69.0422 15.4389 69.3212C16.0514 69.6002 16.5618 69.9949 16.9752 70.5053C17.3869 71.0156 17.6999 71.623 17.9126 72.3256C18.1252 73.0282 18.2324 73.804 18.2324 74.6529L18.2273 74.6546ZM16.7948 74.6546C16.7948 74.032 16.7285 73.4382 16.5958 72.8734C16.4631 72.3103 16.2538 71.8152 15.968 71.3916C15.6839 70.968 15.3181 70.6295 14.8741 70.3777C14.4284 70.1259 13.9027 70 13.2919 70C12.7884 70 12.3205 70.1106 11.8901 70.3283C11.458 70.5478 11.0905 70.8591 10.786 71.264C10.4815 71.6689 10.2416 72.1589 10.0698 72.7356C9.89623 73.3123 9.81116 73.9537 9.81116 74.6563C9.81116 75.3062 9.88091 75.9272 10.0204 76.5158C10.1599 77.1061 10.376 77.6267 10.6669 78.0776C10.9578 78.5284 11.3202 78.8874 11.7506 79.1528C12.1827 79.4182 12.6965 79.5509 13.2936 79.5509C13.8244 79.5509 14.3042 79.4284 14.7363 79.1834C15.1684 78.9384 15.5359 78.5965 15.8404 78.1592C16.145 77.722 16.3814 77.2048 16.5464 76.6077C16.7115 76.0105 16.7948 75.3607 16.7948 74.658V74.6546Z" fill="black"></path>
    <path d="M29.3501 80.4049C29.3229 80.3249 29.2974 80.2126 29.2702 80.0663C29.2429 79.9472 29.2174 79.8009 29.1902 79.6291C29.163 79.4573 29.1375 79.2446 29.1102 78.9928L28.3736 73.5199C28.3481 73.3208 28.3243 73.1116 28.3038 72.8938C28.2834 72.6744 28.2647 72.4719 28.2443 72.2865C28.2239 72.101 28.2069 71.8748 28.195 71.6094C28.1814 71.6366 28.1354 71.8118 28.0555 72.1368C27.9755 72.4617 27.8632 72.8173 27.7169 73.2018L25.5087 79.1715H24.772C24.7057 79.0915 24.6461 78.9996 24.5934 78.8925C24.5407 78.8006 24.4845 78.6866 24.425 78.5539C24.3654 78.4212 24.3093 78.2749 24.2565 78.1167L22.6046 73.3208C22.5383 73.1745 22.4821 73.0163 22.4345 72.8428C22.3886 72.671 22.346 72.5042 22.3052 72.346C22.2661 72.1861 22.232 72.0517 22.2048 71.9377C22.1793 71.8254 22.1657 71.7557 22.1657 71.7285L21.9479 73.4603L21.0922 80.4049H20.1582C20.131 80.2586 20.1106 80.114 20.0987 79.9677C20.0851 79.835 20.0783 79.6853 20.0783 79.5202C20.0783 79.3552 20.0919 79.1783 20.1174 78.9928L21.4308 69.1034H22.2865C22.3528 69.2361 22.426 69.3756 22.506 69.5219C22.5723 69.6546 22.6421 69.8009 22.7152 69.9592C22.7884 70.1191 22.8581 70.2841 22.9245 70.4559L24.6751 75.4508C24.7142 75.5699 24.7686 75.7366 24.835 75.9476C24.9013 76.1602 24.9643 76.3661 25.0238 76.5651C25.0834 76.7642 25.1327 76.9428 25.1735 77.1027C25.2127 77.2627 25.2399 77.3545 25.2535 77.3817C25.2535 77.3426 25.2756 77.2388 25.3232 77.0738C25.3692 76.9088 25.4253 76.7217 25.4917 76.5175C25.558 76.3117 25.6278 76.1041 25.7009 75.8914C25.7741 75.6788 25.837 75.507 25.8898 75.3743L28.1779 69.1068H28.9929C29.0201 69.2395 29.0592 69.379 29.1119 69.5253C29.1392 69.658 29.1749 69.8043 29.2208 69.9626C29.2668 70.1225 29.3042 70.2875 29.3297 70.4593L30.6022 80.4083H29.3484L29.3501 80.4049Z" fill="black"></path>
    <path d="M42.3443 74.6546C42.3443 75.5699 42.2082 76.395 41.936 77.1317C41.6638 77.8683 41.2981 78.4944 40.8387 79.0116C40.3811 79.5287 39.8554 79.9302 39.2634 80.2143C38.6713 80.5002 38.0572 80.6414 37.4192 80.6414C36.6604 80.6414 35.9799 80.4951 35.376 80.2041C34.772 79.9132 34.26 79.5015 33.8414 78.9707C33.4229 78.4399 33.0997 77.8071 32.8751 77.0704C32.6489 76.3338 32.5366 75.5274 32.5366 74.6529C32.5366 73.7785 32.6659 72.9415 32.9262 72.2252C33.1865 71.509 33.5386 70.9051 33.9826 70.4151C34.4284 69.9251 34.9456 69.5492 35.5376 69.2906C36.1279 69.032 36.7574 68.9027 37.4209 68.9027C38.2324 68.9027 38.9435 69.0422 39.5543 69.3212C40.165 69.6002 40.6771 69.9949 41.0888 70.5053C41.5005 71.0156 41.8135 71.623 42.0262 72.3256C42.2389 73.0282 42.346 73.804 42.346 74.6529L42.3443 74.6546ZM40.9119 74.6546C40.9119 74.032 40.8455 73.4382 40.7128 72.8734C40.5801 72.3103 40.3709 71.8152 40.0851 71.3916C39.8009 70.968 39.4352 70.6295 38.9912 70.3777C38.5471 70.1259 38.0197 70 37.409 70C36.9054 70 36.4376 70.1106 36.0054 70.3283C35.5733 70.5478 35.2058 70.8591 34.9013 71.264C34.5968 71.6689 34.3569 72.1589 34.1851 72.7356C34.0116 73.3123 33.9265 73.9537 33.9265 74.6563C33.9265 75.3062 33.9963 75.9272 34.1358 76.5158C34.2753 77.1061 34.4913 77.6267 34.7822 78.0776C35.0749 78.5284 35.4355 78.8874 35.8676 79.1528C36.2981 79.4182 36.8135 79.5509 37.4107 79.5509C37.9415 79.5509 38.4212 79.4284 38.8533 79.1834C39.2855 78.9384 39.6529 78.5965 39.9575 78.1592C40.262 77.722 40.4968 77.2048 40.6635 76.6077C40.8285 76.0105 40.9119 75.3607 40.9119 74.658V74.6546Z" fill="black"></path>
    <path d="M50.4525 80.4049C50.3726 80.3522 50.2807 80.2654 50.1735 80.1463C50.08 80.0408 49.9745 79.9047 49.8554 79.738C49.7363 79.573 49.6036 79.3569 49.4573 79.0915L47.6625 76.1075C47.5553 75.9085 47.4328 75.7571 47.2933 75.6499C47.1538 75.5444 47.0075 75.4679 46.8527 75.4202C46.6996 75.3743 46.543 75.3437 46.3831 75.3301C46.2232 75.3164 46.0769 75.3096 45.9442 75.3096V80.4032H44.7703C44.7431 80.2569 44.7176 80.1055 44.6904 79.9456C44.6512 79.6666 44.6308 79.3348 44.6308 78.9503V69.1C45.1361 69.0864 45.689 69.0779 46.2878 69.0711C46.8867 69.0643 47.4396 69.0609 47.9449 69.0609C48.3838 69.0609 48.8125 69.1239 49.231 69.2498C49.6495 69.3756 50.0221 69.5611 50.3488 69.8061C50.6737 70.051 50.934 70.3658 51.1262 70.7503C51.3185 71.1347 51.4154 71.5856 51.4154 72.1028C51.4154 72.5927 51.3253 73.0214 51.1466 73.3855C50.9663 73.7513 50.7315 74.0592 50.4372 74.311C50.1446 74.5628 49.8231 74.7584 49.4692 74.8979C49.117 75.0374 48.7734 75.1259 48.4416 75.1667C48.5471 75.2722 48.6543 75.3862 48.7598 75.5053C48.8653 75.6244 48.9928 75.7979 49.1375 76.0225L51.8237 80.3998H50.4508L50.4525 80.4049ZM49.983 72.147C49.983 71.4971 49.7839 70.9935 49.3858 70.6346C48.9877 70.2756 48.4382 70.097 47.7339 70.097C47.4821 70.097 47.1776 70.1004 46.8186 70.1072C46.4597 70.114 46.1688 70.1174 45.9442 70.1174V74.3161C46.1551 74.3433 46.3882 74.3586 46.64 74.3654C46.8918 74.3722 47.13 74.3688 47.3562 74.3552C47.6608 74.3416 47.9704 74.2991 48.2817 74.2259C48.5931 74.1528 48.8755 74.0303 49.1272 73.8568C49.379 73.6849 49.5849 73.4587 49.7431 73.1797C49.903 72.9007 49.9813 72.557 49.9813 72.1453L49.983 72.147Z" fill="black"></path>
    <path d="M59.6666 80.4049C59.5866 80.3522 59.493 80.2654 59.3875 80.1463C59.294 80.0408 59.1885 79.9047 59.0694 79.738C58.9503 79.573 58.8176 79.3569 58.6713 79.0915L56.8765 76.1075C56.7693 75.9085 56.6468 75.7571 56.5073 75.6499C56.3661 75.5444 56.2215 75.4679 56.0667 75.4202C55.9136 75.3743 55.7571 75.3437 55.5971 75.3301C55.4372 75.3164 55.2909 75.3096 55.1565 75.3096V80.4032H53.9826C53.9554 80.2569 53.9299 80.1055 53.9027 79.9456C53.8636 79.6666 53.8431 79.3348 53.8431 78.9503V69.1C54.3484 69.0864 54.8996 69.0779 55.5002 69.0711C56.099 69.0643 56.6502 69.0609 57.1572 69.0609C57.5961 69.0609 58.0248 69.1239 58.4433 69.2498C58.8619 69.3756 59.2344 69.5611 59.5611 69.8061C59.886 70.051 60.1463 70.3658 60.3386 70.7503C60.5308 71.1347 60.6278 71.5856 60.6278 72.1028C60.6278 72.5927 60.5376 73.0214 60.359 73.3855C60.1786 73.7513 59.9439 74.0592 59.6512 74.311C59.3586 74.5628 59.0371 74.7584 58.6832 74.8979C58.3311 75.0374 57.9891 75.1259 57.6557 75.1667C57.7611 75.2722 57.8683 75.3862 57.9738 75.5053C58.0793 75.6244 58.2052 75.7979 58.3515 76.0225L61.0378 80.3998H59.6649L59.6666 80.4049ZM59.197 72.147C59.197 71.4971 58.998 70.9935 58.5999 70.6346C58.2018 70.2756 57.6506 70.097 56.9479 70.097C56.6962 70.097 56.3899 70.1004 56.0327 70.1072C55.6737 70.114 55.3828 70.1174 55.1565 70.1174V74.3161C55.3692 74.3433 55.6005 74.3586 55.8523 74.3654C56.1041 74.3722 56.3423 74.3688 56.5686 74.3552C56.8731 74.3416 57.181 74.2991 57.494 74.2259C57.8054 74.1528 58.0878 74.0303 58.3396 73.8568C58.5914 73.6849 58.7972 73.4587 58.9554 73.1797C59.1153 72.9007 59.1936 72.557 59.1936 72.1453L59.197 72.147Z" fill="black"></path>
    <path d="M72.4107 74.6546C72.4107 75.5699 72.2746 76.395 72.0024 77.1317C71.7302 77.8683 71.3644 78.4944 70.9068 79.0116C70.4474 79.5287 69.9217 79.9302 69.3314 80.2143C68.7394 80.5002 68.1252 80.6414 67.4872 80.6414C66.7285 80.6414 66.048 80.4951 65.4423 80.2041C64.8384 79.9132 64.3263 79.5015 63.9078 78.9707C63.4893 78.4399 63.166 77.8071 62.9415 77.0704C62.7152 76.3338 62.6029 75.5274 62.6029 74.6529C62.6029 73.7785 62.7322 72.9415 62.9908 72.2252C63.2511 71.509 63.6016 70.9051 64.0473 70.4151C64.493 69.9251 65.0119 69.5492 65.6022 69.2906C66.1926 69.032 66.8221 68.9027 67.4872 68.9027C68.2987 68.9027 69.0099 69.0422 69.6206 69.3212C70.2314 69.6002 70.7435 69.9949 71.1552 70.5053C71.5669 71.0156 71.8799 71.623 72.0926 72.3256C72.3052 73.0282 72.4124 73.804 72.4124 74.6529L72.4107 74.6546ZM70.9782 74.6546C70.9782 74.032 70.9119 73.4382 70.7792 72.8734C70.6465 72.3103 70.4372 71.8152 70.1531 71.3916C69.8673 70.968 69.5032 70.6295 69.0575 70.3777C68.6135 70.1259 68.0861 70 67.4753 70C66.9701 70 66.5022 70.1106 66.0718 70.3283C65.6414 70.5478 65.2722 70.8591 64.9677 71.264C64.6615 71.6689 64.4233 72.1589 64.2515 72.7356C64.0796 73.3123 63.9929 73.9537 63.9929 74.6563C63.9929 75.3062 64.0626 75.9272 64.2021 76.5158C64.3399 77.1061 64.5577 77.6267 64.8486 78.0776C65.1412 78.5284 65.5019 78.8874 65.934 79.1528C66.3661 79.4182 66.8799 79.5509 67.477 79.5509C68.0061 79.5509 68.4876 79.4284 68.9197 79.1834C69.3518 78.9384 69.7193 78.5965 70.0238 78.1592C70.3283 77.722 70.5631 77.2048 70.7298 76.6077C70.8949 76.0105 70.9782 75.3607 70.9782 74.658V74.6546Z" fill="black"></path>
    <path d="M86.4784 69.1034C86.492 69.2361 86.4988 69.3756 86.4988 69.5219C86.4988 69.6546 86.4886 69.8009 86.4699 69.9592C86.4495 70.1191 86.4137 70.2841 86.361 70.4559L83.3957 80.4049H82.54C82.46 80.2858 82.3801 80.1531 82.3001 80.0068C82.2337 79.8741 82.164 79.7244 82.0925 79.5594C82.0177 79.3943 81.9564 79.2038 81.902 78.9928L80.5087 73.6594C80.4559 73.5131 80.4032 73.3311 80.3488 73.1116C80.296 72.8921 80.245 72.6778 80.199 72.4651C80.1531 72.2525 80.1157 72.0704 80.0902 71.9173C80.0629 71.7642 80.051 71.6825 80.051 71.6689L79.4743 73.6594L77.3852 80.4049H76.5703C76.4903 80.2858 76.4103 80.1531 76.3321 80.0068C76.2657 79.8741 76.196 79.7244 76.1228 79.5594C76.0497 79.3943 75.9935 79.2038 75.9527 78.9928L73.5641 69.1034H74.7584C74.8384 69.2106 74.9098 69.3365 74.9779 69.4811C75.0442 69.6002 75.1072 69.7431 75.1667 69.9081C75.2263 70.0731 75.2824 70.2569 75.3368 70.4559L76.6094 76.2861C76.6621 76.5515 76.7115 76.8067 76.7591 77.0517C76.805 77.2967 76.8459 77.5195 76.8782 77.7186C76.9105 77.9176 76.9377 78.0844 76.9581 78.2171C76.9786 78.3498 76.9888 78.4229 76.9888 78.4348C76.9888 78.4093 77.0075 78.3191 77.0483 78.166C77.0874 78.0146 77.1385 77.8309 77.1963 77.6199C77.2559 77.4073 77.3256 77.1725 77.4056 76.9139C77.4855 76.6553 77.5655 76.4001 77.6438 76.1483L79.7737 69.3433H80.5308C80.5835 69.476 80.6363 69.6155 80.6907 69.7618C80.7434 69.8945 80.7928 70.0442 80.8404 70.2092C80.8863 70.376 80.9357 70.5512 80.9901 70.7366L82.4634 76.2691C82.5162 76.4954 82.5689 76.7336 82.6216 76.9854C82.6744 77.2371 82.7288 77.4702 82.7816 77.6812C82.8343 77.8938 82.8768 78.0725 82.9109 78.2188C82.9449 78.3651 82.9602 78.445 82.9602 78.4569C82.9602 78.4178 82.984 78.3208 83.0299 78.1677C83.0759 78.0163 83.1303 77.8292 83.1899 77.6114C83.2494 77.392 83.3157 77.1538 83.3889 76.8952C83.4604 76.6366 83.5301 76.3882 83.5982 76.1483L85.5478 69.1034H86.4818H86.4784Z" fill="black"></path>
    <path d="M98.3362 70.1973H95.3113V80.4253H94.1187C94.0779 80.2926 94.0456 80.1531 94.0184 80.0068C93.952 79.7159 93.9197 79.3892 93.9197 79.032V70.1973H90.7758V69.1017H98.7155L98.3379 70.1973H98.3362Z" fill="black"></path>
    <path d="M106.116 70.1973H101.54V73.9384H105.599V75.0323H101.54V79.311H106.256V80.4049H100.364C100.339 80.2722 100.311 80.1327 100.286 79.9881C100.247 79.7363 100.226 79.4114 100.226 79.0133V69.1034H106.335L106.116 70.199V70.1973Z" fill="black"></path>
    <path d="M115.57 79.7091C115.051 79.9745 114.537 80.1973 114.027 80.376C113.516 80.5546 112.982 80.6448 112.426 80.6448C111.802 80.6448 111.221 80.5189 110.684 80.2671C110.146 80.0153 109.68 79.6495 109.287 79.1732C108.892 78.6951 108.585 78.1116 108.362 77.4209C108.141 76.7319 108.028 75.9425 108.028 75.0527C108.028 74.2702 108.117 73.5114 108.292 72.7748C108.469 72.0381 108.751 71.3814 109.137 70.8047C109.525 70.228 110.02 69.7669 110.624 69.4216C111.228 69.0762 111.96 68.9044 112.822 68.9044C113.287 68.9044 113.722 68.9537 114.126 69.0541C114.53 69.1545 114.952 69.2957 115.388 69.4811L114.852 70.5359C114.52 70.3624 114.197 70.2314 113.886 70.1378C113.574 70.0442 113.246 69.9983 112.901 69.9983C112.264 69.9983 111.727 70.1514 111.29 70.4559C110.852 70.7605 110.497 71.1569 110.225 71.64C109.952 72.1249 109.757 72.6659 109.638 73.2613C109.519 73.8585 109.459 74.4488 109.459 75.0323C109.459 75.7486 109.539 76.3865 109.697 76.9428C109.857 77.4991 110.075 77.9755 110.354 78.3651C110.633 78.7564 110.961 79.0524 111.339 79.2514C111.718 79.4505 112.125 79.5492 112.564 79.5492C113.003 79.5492 113.413 79.4675 113.838 79.3008C114.262 79.1358 114.667 78.9265 115.051 78.6747L115.57 79.7091Z" fill="black"></path>
    <path d="M123.787 80.4049C123.76 80.2722 123.734 80.1327 123.707 79.9881C123.682 79.8554 123.661 79.7074 123.647 79.5406C123.634 79.3756 123.627 79.1987 123.627 79.0133V75.0323H118.673V80.4049H117.497C117.472 80.2722 117.446 80.1327 117.419 79.9881C117.38 79.7363 117.36 79.4114 117.36 79.0133V69.1034H118.515C118.54 69.2361 118.566 69.3756 118.593 69.5219C118.619 69.6546 118.639 69.8009 118.653 69.9592C118.666 70.1191 118.673 70.2841 118.673 70.4559V73.8993H123.627V69.1034H124.842C124.869 69.2361 124.895 69.3756 124.922 69.5219C124.947 69.6546 124.968 69.8009 124.981 69.9592C124.995 70.1191 125.002 70.2841 125.002 70.4559V80.4049H123.787Z" fill="black"></path>
  </g>
  <defs>
    <clipPath id="clip0_55_2">
      <rect width="125" height="80.6431" fill="white"></rect>
    </clipPath>
  </defs>
</svg>
